# xmcd
#
# Track frame offsets:
#	150
#	20769
#	45357
#	63384
#	96575
#	117799
#	133999
#	152073
#	174796
#	191070
#	212894
#	232933
#	260758
#	275203
#	297140
#	326015
#
# Disc length: 4663 seconds
#
# Revision: 0
# Processed by: cddbd v1.5.1PL2 Copyright (c) Steve Scherf et al.
# Submitted via: dBpowerAMP V4.0
#
DISCID=f4123510
DTITLE=HippyMuzikGroup - HighTime Music
DYEAR=2006
DGENRE=Blues
TTITLE0=Peter Green Splinter Group
TTITLE1=Peter Garstnauer Band
TTITLE2=Kim Lembo and Mark Doyle
TTITLE3=Joe Bonamassa
TTITLE4=Tino Gonzales
TTITLE5=Heikki Silvennoinen
TTITLE6=Working Blues Band
TTITLE7=Lucky Peterson
TTITLE8=Taj Mahal
TTITLE9=Vargas Blues Band
TTITLE10=Vargas Blues Band
TTITLE11=Neville Brothers
TTITLE12=Snowy White
TTITLE13=Baba Blues
TTITLE14=Baba Blues
TTITLE15=John Mayall
EXTD=‰™Ê’ÏÈ—® “ÛÌπ˘«
EXTT0=
EXTT1=
EXTT2=
EXTT3=
EXTT4=
EXTT5=
EXTT6=
EXTT7=
EXTT8=
EXTT9=
EXTT10=
EXTT11=
EXTT12=
EXTT13=
EXTT14=
EXTT15=
PLAYORDER=
